<svg width="48" height="48" viewBox="0 0 128 128" fill="none" xmlns="http://www.w3.org/2000/svg">
<rect width="128" height="128" rx="24" fill="url(#paint0_linear_206_109)"/>
<path d="M44.16 109.12V101.391H39.6438C37.2781 101.391 35.7727 100.92 35.1275 99.9761C34.4823 99.1053 34.1597 97.2548 34.1597 94.4246V77.7699C34.1597 73.2706 33.407 70.0413 31.9016 68.0819C30.3961 66.1225 28.3172 64.78 25.6648 64.0543V63.9455C28.2455 63.2198 30.3245 61.9135 31.9016 60.0267C33.407 58.0673 34.1597 54.8017 34.1597 50.2298V33.5752C34.1597 30.8175 34.4823 28.967 35.1275 28.0236C35.7727 27.0802 37.2781 26.6085 39.6438 26.6085H44.16V18.8799H39.5362C35.5218 18.8799 32.4751 19.3516 30.3961 20.295C28.3172 21.1658 26.9193 22.6898 26.2025 24.8669C25.4856 26.9714 25.1272 29.9104 25.1272 33.684V50.0121C25.1272 53.1326 24.697 55.6363 23.8368 57.5231C22.9766 59.4099 20.8976 60.3533 17.6 60.3533V67.6465C20.8976 67.6465 22.9766 68.5899 23.8368 70.4767C24.697 72.3635 25.1272 74.8671 25.1272 77.9876V94.3157C25.1272 98.0168 25.4856 100.956 26.2025 103.133C26.9193 105.31 28.3172 106.834 30.3961 107.705C32.4751 108.648 35.5218 109.12 39.5362 109.12H44.16Z" fill="white"/>
<path d="M55.3864 74.221L49.2824 69.6796L57.5096 58.1925L44.1072 53.9183L46.4957 46.5719L59.8981 50.9797V36.8213H67.4619V50.9797L80.8643 46.5719L83.2528 53.9183L69.7177 58.1925L78.0776 69.6796L71.9736 74.221L63.6136 62.7339L55.3864 74.221Z" fill="white"/>
<ellipse cx="63.6084" cy="86.8104" rx="8.55814" ry="8.54943" fill="white"/>
<path d="M87.9352 109.12C92.0464 109.12 95.1666 108.648 97.2956 107.705C99.4246 106.834 100.856 105.31 101.59 103.133C102.324 100.956 102.692 98.0168 102.692 94.3157V77.9876C102.692 74.8671 103.132 72.3635 104.013 70.4767C104.821 68.5899 106.95 67.6465 110.4 67.6465V60.3533C106.95 60.3533 104.821 59.4099 104.013 57.5231C103.132 55.6363 102.692 53.1326 102.692 50.0121V33.684C102.692 29.9104 102.324 26.9714 101.59 24.8669C100.856 22.6898 99.4246 21.1658 97.2956 20.295C95.1666 19.3516 92.0464 18.8799 87.9352 18.8799H83.2V26.6085H87.8251C90.2478 26.6085 91.7895 27.0802 92.4502 28.0236C93.111 28.967 93.4413 30.8175 93.4413 33.5752V50.2298C93.4413 54.8017 94.2489 58.0673 95.864 60.0267C97.4057 61.9135 99.498 63.2198 102.141 63.9455V64.0543C99.3512 64.78 97.2222 66.1225 95.7539 68.0819C94.2122 70.0413 93.4413 73.2706 93.4413 77.7699V94.4246C93.4413 97.2548 93.111 99.1053 92.4502 99.9761C91.7895 100.92 90.2478 101.391 87.8251 101.391H83.2V109.12H87.9352Z" fill="white"/>
<defs>
<linearGradient id="paint0_linear_206_109" x1="64" y1="0" x2="64" y2="128" gradientUnits="userSpaceOnUse">
<stop stop-color="#2C5FD5"/>
<stop offset="1" stop-color="#6183D3"/>
</linearGradient>
</defs>
</svg>
